<svg width="7" height="7" viewBox="0 0 7 7" fill="none" xmlns="http://www.w3.org/2000/svg">
<path fill-rule="evenodd" clip-rule="evenodd" d="M6.0832 0.694524C5.94791 0.559238 5.72857 0.559237 5.59328 0.694524L3.38868 2.89913L1.18407 0.694519C1.04878 0.559232 0.82944 0.559232 0.694153 0.694519C0.558867 0.829805 0.558866 1.04915 0.694153 1.18443L2.89876 3.38904L0.694121 5.59368C0.558834 5.72897 0.558834 5.94831 0.69412 6.0836C0.829407 6.21889 1.04875 6.21889 1.18404 6.0836L3.38868 3.87896L5.59331 6.08359C5.7286 6.21888 5.94794 6.21888 6.08323 6.08359C6.21851 5.94831 6.21851 5.72897 6.08323 5.59368L3.87859 3.38904L6.0832 1.18444C6.21848 1.04915 6.21848 0.829811 6.0832 0.694524Z" fill="#D2D2D2"/>
</svg>
